<svg width="40" height="45" viewBox="0 0 40 45" fill="none" xmlns="http://www.w3.org/2000/svg">
    <path
            d="M16.8305 0.171288C13.892 0.611862 10.6497 1.88639 8.25165 3.52282C3.96224 6.46524 1.22648 10.635 0.331447 15.6544C-0.107626 18.0776 -0.107626 19.0846 0.314559 21.4449C0.990056 25.0954 2.22284 27.6916 4.65463 30.5082C6.17449 32.2705 7.15396 32.6009 8.11655 31.7197C8.87648 30.9959 8.72449 30.2879 7.54238 29.0133C4.63774 25.8821 3.26986 22.562 3.26986 18.5811C3.26986 14.2855 4.9586 10.5091 8.23476 7.48801C12.1358 3.88472 17.4046 2.32697 22.8593 3.16092C29.7156 4.19942 35.3728 9.4234 36.6056 15.8904C36.8421 17.0863 36.8421 20.0602 36.6056 21.2718C36.2003 23.396 35.0858 25.8664 33.6334 27.7703C33.1944 28.3367 29.496 31.94 25.4093 35.7794C21.3056 39.6187 17.945 42.7971 17.9113 42.8601C17.8944 42.923 18.3672 43.4265 18.9752 43.993L20.0728 45L26.3381 39.1151C35.1195 30.8386 35.8795 30.0833 36.707 28.9032C38.9361 25.6775 40 22.3418 40 18.5811C40 13.184 37.7202 8.44784 33.2957 4.65573C30.9821 2.67313 27.3344 0.926559 24.2103 0.328636C22.3358 -0.033268 18.6712 -0.111942 16.8305 0.171288Z"
            fill="white"/>
    <path
            d="M17.1175 5.66278C14.6182 6.11909 11.9838 7.45656 10.0755 9.23461C7.32284 11.8151 6.00562 14.7733 5.98873 18.5025C5.97185 21.9799 6.98509 24.6233 9.33244 27.2039C10.4977 28.5099 11.4603 28.7144 12.3215 27.849C12.9464 27.2353 12.8619 26.3699 12.1189 25.6304C10.8185 24.3401 9.82218 22.6879 9.41688 21.1774C9.07913 19.9186 9.11291 16.929 9.50132 15.7489C10.6328 12.24 13.8583 9.37622 17.506 8.66815C18.8569 8.40066 20.9848 8.36919 22.3358 8.60521C26.051 9.23461 29.4454 12.2085 30.5599 15.7961C31.4887 18.7542 30.9315 21.791 28.9725 24.4817C28.6854 24.8751 25.1222 28.3053 21.0523 32.1131L13.6556 39.0208L14.7871 40.0907L15.9185 41.1607L23.2477 34.2688C27.2838 30.4924 30.8301 27.1094 31.1341 26.7633C33.3801 24.2142 34.5623 20.3277 34.0894 17.0863C33.6672 14.1911 32.4007 11.6578 30.3911 9.64371C28.5334 7.80273 26.5914 6.66982 24.0245 5.91454C22.5215 5.47396 18.8907 5.34809 17.1175 5.66278Z"
            fill="white"/>
    <path
            d="M18.5867 10.9496C16.4083 11.2643 13.8414 12.9637 12.7775 14.8204C11.8149 16.4883 11.5447 18.7541 12.0513 20.6266C12.8112 23.3173 15.1079 25.3943 18.1477 26.1338C19.9208 26.5587 22.0824 26.3226 23.805 25.5044C25.2066 24.8278 26.6758 23.4746 27.3682 22.2001C29.6987 17.9674 27.6384 13.0581 22.7748 11.2643C21.8629 10.9339 19.8195 10.7766 18.5867 10.9496ZM22.1838 14.2697C25.4093 15.7645 26.1016 19.5724 23.6023 21.9326C21.2043 24.1827 17.3202 23.6792 15.5639 20.8941C15.0235 20.0444 14.8377 18.2664 15.1755 17.1492C15.5977 15.7645 17.2526 14.2854 18.7725 13.9235C19.7013 13.7032 21.3225 13.8763 22.1838 14.2697Z"
            fill="white"/>
</svg>
